<svg xmlns="http://www.w3.org/2000/svg" style="display:none">
  <symbol id="icon-instagram" viewBox="0 0 24 24">
    <rect x="2" y="2" width="20" height="20" rx="5" ry="5" fill="none" stroke="currentColor" stroke-width="1.8"/>
    <circle cx="12" cy="12" r="4.2" fill="none" stroke="currentColor" stroke-width="1.8"/>
    <circle cx="17.4" cy="6.6" r="1.2" fill="currentColor"/>
  </symbol>
  <symbol id="icon-instagram-brand" viewBox="0 0 24 24">
    <defs>
      <linearGradient id="ig-grad" x1="0%" y1="100%" x2="100%" y2="0%">
        <stop offset="0%" stop-color="#F58529"/>
        <stop offset="30%" stop-color="#DD2A7B"/>
        <stop offset="60%" stop-color="#8134AF"/>
        <stop offset="100%" stop-color="#515BD4"/>
      </linearGradient>
    </defs>
    <rect x="1" y="1" width="22" height="22" rx="6" fill="url(#ig-grad)"/>
    <rect x="5.5" y="5.5" width="13" height="13" rx="3.5" fill="none" stroke="#fff" stroke-width="1.6"/>
    <circle cx="12" cy="12" r="3.2" fill="none" stroke="#fff" stroke-width="1.6"/>
    <circle cx="17.2" cy="6.8" r="1.1" fill="#fff"/>
  </symbol>
  <symbol id="icon-telegram" viewBox="0 0 24 24">
    <circle cx="12" cy="12" r="11" fill="#229ED9"/>
    <path d="M5.5 11.8c3.9-1.7 6.5-2.8 7.8-3.4 3.3-1.4 4-1.6 4.4-1.6.1 0 .2 0 .3.1.1.1.1.2.1.3 0 .1-.1.4-.3 1.1-.9 3.9-3.8 13.4-4.1 14.2-.1.3-.2.4-.4.5-.2 0-.3 0-.5-.1l-2.8-2.1-1.4 1.3c-.2.2-.3.3-.6.3-.2 0-.4-.1-.6-.3l.2-2.8 5.2-4.7c.2-.2 0-.4-.4-.2L8.6 14.8l-2.7-.9c-.3-.1-.3-.5.1-.6z" fill="#fff"/>
  </symbol>
  <symbol id="icon-form" viewBox="0 0 24 24">
    <rect x="3" y="4" width="18" height="16" rx="3" fill="none" stroke="currentColor" stroke-width="1.8"/>
    <path d="M7 9h10M7 13h7" stroke="currentColor" stroke-width="1.8" stroke-linecap="round"/>
  </symbol>
</svg>